<mxfile host="app.diagrams.net" modified="2020-11-06T05:06:39.752Z" agent="5.0 (Macintosh; Intel Mac OS X 10_15_7) AppleWebKit/537.36 (KHTML, like Gecko) Chrome/86.0.4240.183 Safari/537.36" etag="1A9PKJVHkhgPvcMQz2CS" version="13.8.9-1" type="github">
  <diagram id="aiVmZhxZMEHe4Tij-qEe" name="Page-1">
    <mxGraphModel dx="1833" dy="1032" grid="1" gridSize="10" guides="1" tooltips="1" connect="1" arrows="1" fold="1" page="1" pageScale="1" pageWidth="827" pageHeight="1169" math="0" shadow="0">
      <root>
        <mxCell id="0" />
        <mxCell id="1" parent="0" />
        <mxCell id="X3PW7SM5b6IYtUITRiSQ-30" value="" style="whiteSpace=wrap;html=1;aspect=fixed;strokeColor=#FF3333;" vertex="1" parent="1">
          <mxGeometry x="414" y="180" width="252.5" height="252.5" as="geometry" />
        </mxCell>
        <mxCell id="X3PW7SM5b6IYtUITRiSQ-39" style="edgeStyle=orthogonalEdgeStyle;rounded=0;orthogonalLoop=1;jettySize=auto;html=1;" edge="1" parent="1" source="X3PW7SM5b6IYtUITRiSQ-1" target="X3PW7SM5b6IYtUITRiSQ-38">
          <mxGeometry relative="1" as="geometry">
            <Array as="points">
              <mxPoint x="320" y="190" />
              <mxPoint x="320" y="565" />
            </Array>
          </mxGeometry>
        </mxCell>
        <mxCell id="X3PW7SM5b6IYtUITRiSQ-1" value="DESCARGADO&lt;br&gt;BECADOS" style="rounded=0;whiteSpace=wrap;html=1;" vertex="1" parent="1">
          <mxGeometry x="160" y="180" width="120" height="60" as="geometry" />
        </mxCell>
        <mxCell id="X3PW7SM5b6IYtUITRiSQ-7" style="edgeStyle=orthogonalEdgeStyle;rounded=0;orthogonalLoop=1;jettySize=auto;html=1;entryX=0.458;entryY=1;entryDx=0;entryDy=0;entryPerimeter=0;" edge="1" parent="1" source="X3PW7SM5b6IYtUITRiSQ-5" target="X3PW7SM5b6IYtUITRiSQ-1">
          <mxGeometry relative="1" as="geometry" />
        </mxCell>
        <mxCell id="X3PW7SM5b6IYtUITRiSQ-5" value="" style="html=1;strokeWidth=1;shadow=0;dashed=0;shape=mxgraph.ios7.misc.text_size;fillColor=#007AFF;strokeColor=none;buttonText=;strokeColor2=#222222;fontColor=#222222;fontSize=8;verticalLabelPosition=bottom;verticalAlign=top;align=center;" vertex="1" parent="1">
          <mxGeometry x="180" y="280" width="70" height="65" as="geometry" />
        </mxCell>
        <mxCell id="X3PW7SM5b6IYtUITRiSQ-8" value="PEL" style="text;html=1;strokeColor=none;fillColor=none;align=center;verticalAlign=middle;whiteSpace=wrap;rounded=0;" vertex="1" parent="1">
          <mxGeometry x="200" y="345" width="40" height="20" as="geometry" />
        </mxCell>
        <mxCell id="X3PW7SM5b6IYtUITRiSQ-9" value="" style="shape=table;html=1;whiteSpace=wrap;startSize=0;container=1;collapsible=0;childLayout=tableLayout;" vertex="1" parent="1">
          <mxGeometry x="450" y="186.25" width="190" height="240" as="geometry" />
        </mxCell>
        <mxCell id="X3PW7SM5b6IYtUITRiSQ-10" value="" style="shape=partialRectangle;html=1;whiteSpace=wrap;collapsible=0;dropTarget=0;pointerEvents=0;fillColor=none;top=0;left=0;bottom=0;right=0;points=[[0,0.5],[1,0.5]];portConstraint=eastwest;" vertex="1" parent="X3PW7SM5b6IYtUITRiSQ-9">
          <mxGeometry width="190" height="40" as="geometry" />
        </mxCell>
        <mxCell id="X3PW7SM5b6IYtUITRiSQ-11" value="STRING" style="shape=partialRectangle;html=1;whiteSpace=wrap;connectable=0;overflow=hidden;fillColor=none;top=0;left=0;bottom=0;right=0;" vertex="1" parent="X3PW7SM5b6IYtUITRiSQ-10">
          <mxGeometry width="105" height="40" as="geometry" />
        </mxCell>
        <mxCell id="X3PW7SM5b6IYtUITRiSQ-12" value="@" style="shape=partialRectangle;html=1;whiteSpace=wrap;connectable=0;overflow=hidden;fillColor=none;top=0;left=0;bottom=0;right=0;" vertex="1" parent="X3PW7SM5b6IYtUITRiSQ-10">
          <mxGeometry x="105" width="85" height="40" as="geometry" />
        </mxCell>
        <mxCell id="X3PW7SM5b6IYtUITRiSQ-13" value="" style="shape=partialRectangle;html=1;whiteSpace=wrap;collapsible=0;dropTarget=0;pointerEvents=0;fillColor=none;top=0;left=0;bottom=0;right=0;points=[[0,0.5],[1,0.5]];portConstraint=eastwest;" vertex="1" parent="X3PW7SM5b6IYtUITRiSQ-9">
          <mxGeometry y="40" width="190" height="40" as="geometry" />
        </mxCell>
        <mxCell id="X3PW7SM5b6IYtUITRiSQ-14" value="STRING" style="shape=partialRectangle;html=1;whiteSpace=wrap;connectable=0;overflow=hidden;fillColor=none;top=0;left=0;bottom=0;right=0;" vertex="1" parent="X3PW7SM5b6IYtUITRiSQ-13">
          <mxGeometry width="105" height="40" as="geometry" />
        </mxCell>
        <mxCell id="X3PW7SM5b6IYtUITRiSQ-15" value="NOM" style="shape=partialRectangle;html=1;whiteSpace=wrap;connectable=0;overflow=hidden;fillColor=none;top=0;left=0;bottom=0;right=0;" vertex="1" parent="X3PW7SM5b6IYtUITRiSQ-13">
          <mxGeometry x="105" width="85" height="40" as="geometry" />
        </mxCell>
        <mxCell id="X3PW7SM5b6IYtUITRiSQ-16" value="" style="shape=partialRectangle;html=1;whiteSpace=wrap;collapsible=0;dropTarget=0;pointerEvents=0;fillColor=none;top=0;left=0;bottom=0;right=0;points=[[0,0.5],[1,0.5]];portConstraint=eastwest;" vertex="1" parent="X3PW7SM5b6IYtUITRiSQ-9">
          <mxGeometry y="80" width="190" height="40" as="geometry" />
        </mxCell>
        <mxCell id="X3PW7SM5b6IYtUITRiSQ-17" value="STRING" style="shape=partialRectangle;html=1;whiteSpace=wrap;connectable=0;overflow=hidden;fillColor=none;top=0;left=0;bottom=0;right=0;" vertex="1" parent="X3PW7SM5b6IYtUITRiSQ-16">
          <mxGeometry width="105" height="40" as="geometry" />
        </mxCell>
        <mxCell id="X3PW7SM5b6IYtUITRiSQ-18" value="" style="shape=partialRectangle;html=1;whiteSpace=wrap;connectable=0;overflow=hidden;fillColor=none;top=0;left=0;bottom=0;right=0;" vertex="1" parent="X3PW7SM5b6IYtUITRiSQ-16">
          <mxGeometry x="105" width="85" height="40" as="geometry" />
        </mxCell>
        <mxCell id="X3PW7SM5b6IYtUITRiSQ-19" value="" style="shape=partialRectangle;html=1;whiteSpace=wrap;collapsible=0;dropTarget=0;pointerEvents=0;fillColor=none;top=0;left=0;bottom=0;right=0;points=[[0,0.5],[1,0.5]];portConstraint=eastwest;" vertex="1" parent="X3PW7SM5b6IYtUITRiSQ-9">
          <mxGeometry y="120" width="190" height="40" as="geometry" />
        </mxCell>
        <mxCell id="X3PW7SM5b6IYtUITRiSQ-20" value="" style="shape=partialRectangle;html=1;whiteSpace=wrap;connectable=0;overflow=hidden;fillColor=none;top=0;left=0;bottom=0;right=0;" vertex="1" parent="X3PW7SM5b6IYtUITRiSQ-19">
          <mxGeometry width="105" height="40" as="geometry" />
        </mxCell>
        <mxCell id="X3PW7SM5b6IYtUITRiSQ-21" value="" style="shape=partialRectangle;html=1;whiteSpace=wrap;connectable=0;overflow=hidden;fillColor=none;top=0;left=0;bottom=0;right=0;" vertex="1" parent="X3PW7SM5b6IYtUITRiSQ-19">
          <mxGeometry x="105" width="85" height="40" as="geometry" />
        </mxCell>
        <mxCell id="X3PW7SM5b6IYtUITRiSQ-22" value="" style="shape=partialRectangle;html=1;whiteSpace=wrap;collapsible=0;dropTarget=0;pointerEvents=0;fillColor=none;top=0;left=0;bottom=0;right=0;points=[[0,0.5],[1,0.5]];portConstraint=eastwest;" vertex="1" parent="X3PW7SM5b6IYtUITRiSQ-9">
          <mxGeometry y="160" width="190" height="40" as="geometry" />
        </mxCell>
        <mxCell id="X3PW7SM5b6IYtUITRiSQ-23" value="" style="shape=partialRectangle;html=1;whiteSpace=wrap;connectable=0;overflow=hidden;fillColor=none;top=0;left=0;bottom=0;right=0;" vertex="1" parent="X3PW7SM5b6IYtUITRiSQ-22">
          <mxGeometry width="105" height="40" as="geometry" />
        </mxCell>
        <mxCell id="X3PW7SM5b6IYtUITRiSQ-24" value="" style="shape=partialRectangle;html=1;whiteSpace=wrap;connectable=0;overflow=hidden;fillColor=none;top=0;left=0;bottom=0;right=0;" vertex="1" parent="X3PW7SM5b6IYtUITRiSQ-22">
          <mxGeometry x="105" width="85" height="40" as="geometry" />
        </mxCell>
        <mxCell id="X3PW7SM5b6IYtUITRiSQ-25" value="" style="shape=partialRectangle;html=1;whiteSpace=wrap;collapsible=0;dropTarget=0;pointerEvents=0;fillColor=none;top=0;left=0;bottom=0;right=0;points=[[0,0.5],[1,0.5]];portConstraint=eastwest;" vertex="1" parent="X3PW7SM5b6IYtUITRiSQ-9">
          <mxGeometry y="200" width="190" height="40" as="geometry" />
        </mxCell>
        <mxCell id="X3PW7SM5b6IYtUITRiSQ-26" value="" style="shape=partialRectangle;html=1;whiteSpace=wrap;connectable=0;overflow=hidden;fillColor=none;top=0;left=0;bottom=0;right=0;" vertex="1" parent="X3PW7SM5b6IYtUITRiSQ-25">
          <mxGeometry width="105" height="40" as="geometry" />
        </mxCell>
        <mxCell id="X3PW7SM5b6IYtUITRiSQ-27" value="" style="shape=partialRectangle;html=1;whiteSpace=wrap;connectable=0;overflow=hidden;fillColor=none;top=0;left=0;bottom=0;right=0;" vertex="1" parent="X3PW7SM5b6IYtUITRiSQ-25">
          <mxGeometry x="105" width="85" height="40" as="geometry" />
        </mxCell>
        <mxCell id="X3PW7SM5b6IYtUITRiSQ-28" value="STRUCT" style="text;html=1;strokeColor=none;fillColor=none;align=center;verticalAlign=middle;whiteSpace=wrap;rounded=0;" vertex="1" parent="1">
          <mxGeometry x="350" y="303" width="40" height="20" as="geometry" />
        </mxCell>
        <mxCell id="X3PW7SM5b6IYtUITRiSQ-32" value="18:30" style="text;html=1;strokeColor=none;fillColor=none;align=center;verticalAlign=middle;whiteSpace=wrap;rounded=0;" vertex="1" parent="1">
          <mxGeometry x="120" y="303" width="40" height="20" as="geometry" />
        </mxCell>
        <mxCell id="X3PW7SM5b6IYtUITRiSQ-33" value="20:00" style="text;html=1;strokeColor=none;fillColor=none;align=center;verticalAlign=middle;whiteSpace=wrap;rounded=0;" vertex="1" parent="1">
          <mxGeometry x="130" y="412.5" width="40" height="20" as="geometry" />
        </mxCell>
        <mxCell id="X3PW7SM5b6IYtUITRiSQ-34" value="" style="html=1;strokeWidth=1;shadow=0;dashed=0;shape=mxgraph.ios7.misc.text_size;strokeColor=none;buttonText=;strokeColor2=#222222;fontColor=#222222;fontSize=8;verticalLabelPosition=bottom;verticalAlign=top;align=center;fillColor=#FF00FF;" vertex="1" parent="1">
          <mxGeometry x="180" y="377.5" width="70" height="65" as="geometry" />
        </mxCell>
        <mxCell id="X3PW7SM5b6IYtUITRiSQ-35" value="VAR&lt;br&gt;" style="text;html=1;strokeColor=none;fillColor=none;align=center;verticalAlign=middle;whiteSpace=wrap;rounded=0;" vertex="1" parent="1">
          <mxGeometry x="130" y="480" width="40" height="20" as="geometry" />
        </mxCell>
        <mxCell id="X3PW7SM5b6IYtUITRiSQ-36" value="TOTAL" style="text;html=1;strokeColor=none;fillColor=none;align=center;verticalAlign=middle;whiteSpace=wrap;rounded=0;" vertex="1" parent="1">
          <mxGeometry x="180" y="480" width="40" height="20" as="geometry" />
        </mxCell>
        <mxCell id="X3PW7SM5b6IYtUITRiSQ-37" value=".&lt;br&gt;.&lt;br&gt;.&lt;br&gt;" style="text;html=1;strokeColor=none;fillColor=none;align=center;verticalAlign=middle;whiteSpace=wrap;rounded=0;" vertex="1" parent="1">
          <mxGeometry x="130" y="510" width="40" height="20" as="geometry" />
        </mxCell>
        <mxCell id="X3PW7SM5b6IYtUITRiSQ-38" value="" style="shadow=0;dashed=0;html=1;strokeColor=none;fillColor=#4495D1;labelPosition=center;verticalLabelPosition=bottom;verticalAlign=top;align=center;outlineConnect=0;shape=mxgraph.veeam.2d.report;" vertex="1" parent="1">
          <mxGeometry x="163.1" y="510" width="73.8" height="110" as="geometry" />
        </mxCell>
        <mxCell id="X3PW7SM5b6IYtUITRiSQ-40" value="&lt;font style=&quot;font-size: 13px&quot;&gt;&lt;span&gt;1.Quién es el alumn@ más viej@ ?&lt;/span&gt;&lt;br&gt;&lt;span&gt;2.Cuánt@s alumn@s cumplen años este mes.?&lt;/span&gt;&lt;br&gt;&lt;span&gt;3.Listado de los alunm@s con exp.impar&lt;/span&gt;&lt;br&gt;&lt;span&gt;4.Listado de los alunm@s con exp. Par&lt;/span&gt;&lt;br&gt;&lt;span&gt;5.&lt;/span&gt;&lt;span&gt;Porcentaje de &lt;/span&gt;&lt;span&gt;alunmos&lt;/span&gt;&lt;span&gt; que entregaron la A1.&lt;/span&gt;&lt;br&gt;&lt;span&gt;6.L&lt;/span&gt;&lt;span&gt;istado de asistentes a clase:&amp;nbsp;&lt;/span&gt;&lt;span&gt;Hyflex y&amp;nbsp;&lt;/span&gt;&lt;span&gt;presenciales.&lt;/span&gt;&lt;br&gt;&lt;span&gt;12 , Online = 4 y los nombres.&lt;/span&gt;&lt;/font&gt;" style="text;html=1;strokeColor=none;align=left;verticalAlign=middle;whiteSpace=wrap;rounded=1;shadow=1;perimeterSpacing=2;gradientColor=#ffffff;fillColor=#FFF4C3;" vertex="1" parent="1">
          <mxGeometry x="412.25" y="442.5" width="256" height="210" as="geometry" />
        </mxCell>
        <mxCell id="X3PW7SM5b6IYtUITRiSQ-41" value="&lt;font style=&quot;font-size: 20px&quot;&gt;&lt;b&gt;Enunciado y esquema de lo que se pide, participación en clase&lt;/b&gt;&lt;/font&gt;" style="text;html=1;strokeColor=none;fillColor=none;align=center;verticalAlign=middle;whiteSpace=wrap;rounded=0;shadow=1;" vertex="1" parent="1">
          <mxGeometry x="110" y="150" width="620" height="20" as="geometry" />
        </mxCell>
      </root>
    </mxGraphModel>
  </diagram>
</mxfile>
